<svg width="26" height="29" viewBox="0 0 26 29" fill="none" xmlns="http://www.w3.org/2000/svg">
<path id="Vector" d="M2.90622 28.7124C2.20584 28.7124 1.60627 28.463 1.10751 27.9643C0.608753 27.4655 0.359375 26.8659 0.359375 26.1656C0.359375 25.4652 0.608753 24.8656 1.10751 24.3668C1.60627 23.8681 2.20584 23.6187 2.90622 23.6187H23.281C23.9813 23.6187 24.5809 23.8681 25.0797 24.3668C25.5784 24.8656 25.8278 25.4652 25.8278 26.1656C25.8278 26.8659 25.5784 27.4655 25.0797 27.9643C24.5809 28.463 23.9813 28.7124 23.281 28.7124H2.90622ZM4.17964 21.0719C3.81884 21.0719 3.5164 20.9498 3.27233 20.7058C3.02825 20.4617 2.90622 20.1593 2.90622 19.7984V16.8377C2.90622 16.668 2.93805 16.5035 3.00173 16.3443C3.0654 16.1851 3.1609 16.0419 3.28825 15.9145L14.4307 4.77207L19.206 9.5474L8.06358 20.6898C7.93623 20.8172 7.79297 20.9127 7.6338 20.9764C7.47462 21.04 7.31014 21.0719 7.14035 21.0719H4.17964ZM5.45306 18.525H6.59914L15.6404 9.5474L14.4307 8.33765L5.45306 17.3789V18.525ZM20.6386 8.14664L15.8633 3.37131L18.1554 1.07915C18.3889 0.824463 18.686 0.702427 19.0468 0.713039C19.4076 0.723651 19.7048 0.845687 19.9382 1.07915L22.9308 4.07169C23.1642 4.30515 23.281 4.59698 23.281 4.94717C23.281 5.29736 23.1642 5.5998 22.9308 5.85448L20.6386 8.14664Z" fill="white"/>
</svg>
