<svg width="27" height="29" viewBox="0 0 27 29" fill="none" xmlns="http://www.w3.org/2000/svg">
<path id="Vector" d="M5.69756 28.7124C4.8234 28.7124 4.07508 28.4078 3.45257 27.7985C2.83007 27.1893 2.51882 26.4568 2.51882 25.6013V5.37907C2.06849 5.37907 1.69102 5.23 1.38639 4.93185C1.08176 4.6337 0.929443 4.26425 0.929443 3.82351C0.929443 3.38277 1.08176 3.01333 1.38639 2.71518C1.69102 2.41703 2.06849 2.26796 2.51882 2.26796H8.8763C8.8763 1.82722 9.02862 1.45777 9.33325 1.15962C9.63788 0.861476 10.0154 0.712402 10.4657 0.712402H16.8232C17.2735 0.712402 17.651 0.861476 17.9556 1.15962C18.2602 1.45777 18.4125 1.82722 18.4125 2.26796H24.77C25.2203 2.26796 25.5978 2.41703 25.9024 2.71518C26.2071 3.01333 26.3594 3.38277 26.3594 3.82351C26.3594 4.26425 26.2071 4.6337 25.9024 4.93185C25.5978 5.23 25.2203 5.37907 24.77 5.37907V25.6013C24.77 26.4568 24.4588 27.1893 23.8363 27.7985C23.2138 28.4078 22.4654 28.7124 21.5913 28.7124H5.69756ZM21.5913 5.37907H5.69756V25.6013H21.5913V5.37907ZM13.6444 17.668L16.6642 20.6235C16.9556 20.9087 17.3265 21.0513 17.7768 21.0513C18.2271 21.0513 18.598 20.9087 18.8893 20.6235C19.1807 20.3383 19.3264 19.9754 19.3264 19.5346C19.3264 19.0939 19.1807 18.7309 18.8893 18.4457L15.8695 15.4902L18.8893 12.5346C19.1807 12.2494 19.3264 11.8865 19.3264 11.4457C19.3264 11.005 19.1807 10.642 18.8893 10.3568C18.598 10.0717 18.2271 9.92907 17.7768 9.92907C17.3265 9.92907 16.9556 10.0717 16.6642 10.3568L13.6444 13.3124L10.6246 10.3568C10.3332 10.0717 9.96237 9.92907 9.51205 9.92907C9.06173 9.92907 8.69088 10.0717 8.39949 10.3568C8.10811 10.642 7.96241 11.005 7.96241 11.4457C7.96241 11.8865 8.10811 12.2494 8.39949 12.5346L11.4193 15.4902L8.39949 18.4457C8.10811 18.7309 7.96241 19.0939 7.96241 19.5346C7.96241 19.9754 8.10811 20.3383 8.39949 20.6235C8.69088 20.9087 9.06173 21.0513 9.51205 21.0513C9.96237 21.0513 10.3332 20.9087 10.6246 20.6235L13.6444 17.668Z" fill="white"/>
</svg>
